<svg xmlns="http://www.w3.org/2000/svg" viewBox="15 15 70 70">
  <!-- Background -->
  <rect x="15" y="15" width="70" height="70" fill="#F4F5F7"/>
  
  <!-- Bitbucket-inspired shape -->
  <path d="M20 20 L80 20 L70 80 L30 80 Z" fill="#2684FF"/>
  
  <!-- Tree structure -->
  <path d="M50 25 L50 75 M50 35 L38 50 M50 35 L62 50 M38 50 L32 65 M38 50 L44 65 M62 50 L56 65 M62 50 L68 65" 
        stroke="white" stroke-width="1.5" stroke-linecap="round"/>
  
  <!-- Pull request circles -->
  <circle cx="50" cy="25" r="3.5" fill="white"/>
  <circle cx="50" cy="35" r="3" fill="white"/>
  <circle cx="38" cy="50" r="3" fill="white"/>
  <circle cx="62" cy="50" r="3" fill="white"/>
  <circle cx="32" cy="65" r="2.5" fill="white"/>
  <circle cx="44" cy="65" r="2.5" fill="white"/>
  <circle cx="56" cy="65" r="2.5" fill="white"/>
  <circle cx="68" cy="65" r="2.5" fill="white"/>
  <circle cx="50" cy="75" r="3" fill="white"/>
</svg>
